# xmcd CD database file
#
# Track frame offsets:
#	150
#	28786
#	52094
#	83624
#	110911
#	130268
#	159426
#	176887
#	195693
#	217156
#	232310
#	248391
#
# Disc length: 3362 seconds
#
# Revision: 0
# Processed by: cddbd v1.5.2PL0 Copyright (c) Steve Scherf et al.
# Submitted via: CDex 1.70beta2
#
DISCID=af0d200c
DTITLE=B.B. KING - B.B. King And Friends
DYEAR=1987
DGENRE=Blues
TTITLE0=Why I Sing The Blues
TTITLE1=Please Send Me Someone To Love(With Glady Knight)
TTITLE2=The Thrill Is Gone(With Eric Clapton and Phil Collins)
TTITLE3=I'd Rather Go Blind(With Etta James and Dr. John)
TTITLE4=When Something Is Wrong With My Baby(With Billy Ocean)
TTITLE5=Sky Is Crying(With Stevie Ray Vaughan and Albert King)
TTITLE6=Somebody's Got A Hold On Me(With Etta James)
TTITLE7=Midnight Hour(With Etta James)
TTITLE8=Ain't Nobody's Bizness But My Own(With Gladys Knight, Etta Jones and Chaka Khan)
TTITLE9=Let The Good Times Roll
TTITLE10=Take My Hand, Precious Lord
TTITLE11=Finale(With Friends)
EXTD=YEAR: 1987
EXTT0=
EXTT1=
EXTT2=
EXTT3=
EXTT4=
EXTT5=
EXTT6=
EXTT7=
EXTT8=
EXTT9=
EXTT10=
EXTT11=
PLAYORDER=
